# xmcd
#
# Track frame offsets:
#	150
#	21625
#	42050
#	67915
#	83760
#	103000
#	120820
#	141225
#	146615
#	162010
#	186022
#	205227
#	224947
#	231885
#
# Disc length: 3349 seconds
#
# Revision: 13
# Processed by: cddbd v1.5.2PL0 Copyright (c) Steve Scherf et al.
# Submitted via: EasyCDDAExtractor 15.3.0.1
#
DISCID=c60d130e
DTITLE=Mariah Carey - Rainbow
DYEAR=1999
DGENRE=R&B/Pop
TTITLE0=Heartbreaker
TTITLE1=Can't Take That Away (Mariah's Theme)
TTITLE2=Bliss
TTITLE3=How Much
TTITLE4=After Tonight
TTITLE5=X-Girlfriend
TTITLE6=Heartbreaker (Remix)
TTITLE7=Vulnerability (Interlude)
TTITLE8=Against All Odds (Take A Look At Me Now)
TTITLE9=Crybaby
TTITLE10=Did I Do That
TTITLE11=Petals
TTITLE12=Rainbow (Interlude)
TTITLE13=Thank God I Found You
EXTD=YEAR: 1999
EXTT0=Feat. Jay-Z\n
EXTT1=
EXTT2=
EXTT3=Feat. Usher\n
EXTT4=
EXTT5=
EXTT6=Feat. Da Brat and Missy Elliott\n
EXTT7=
EXTT8=
EXTT9=Feat. Snoop Dogg\n
EXTT10=
EXTT11=
EXTT12=
EXTT13=Feat. Joe and 98 Degrees\n
PLAYORDER=
